#!OML:ASF E:\Steps\Project 1\Capture day 1\Session 2\Subject.ASF
:FULLY-SPECIFIED
:DEGREES
80
root -1.48418 17.9676 20.702 -153.941 -0.228411 178.347
lowerback -27.7499 -2.67173 -6.38346
upperback -0.826975 -2.0212 -0.00749972
thorax 14.0269 -1.54553 2.66006
lowerneck -1.93101 -4.02392 -0.793176
upperneck 5.97118 -5.48935 4.66873
head 2.39122 -2.56752 1.47746
rclavicle -1.00386e-014 6.75868e-015
rhumerus -41.0324 -15.9913 -77.9095
rradius 35.8423
rwrist -4.29054
rhand -8.02312 -53.2369
rfingers 7.12502
rthumb 17.8866 -82.4343
lclavicle -1.00386e-014 6.75868e-015
lhumerus -29.4432 2.67639 81.2331
lradius 28.4703
lwrist -2.33602
lhand -21.6886 -11.8247
lfingers 7.12502
lthumb 4.70944 18.103
rfemur -24.5912 5.36807 19.5737
rtibia 8.23027
rfoot -17.8861 -3.93632
rtoes -25.4128
lfemur -23.8567 -5.83922 -23.7324
ltibia 7.74045
lfoot -5.98244 -6.76339
ltoes -19.3267
81
root -1.48196 17.9791 20.7138 -153.9 -0.266378 178.651
lowerback -27.5366 -2.61534 -6.13838
upperback -1.28668 -2.06149 0.00352101
thorax 14.1621 -1.56319 2.68687
lowerneck -2.31552 -3.93204 -0.748492
upperneck 6.80264 -5.37377 4.46118
head 2.7263 -2.48848 1.39753
rclavicle -1.08338e-014 9.93923e-015
rhumerus -41.1114 -16.054 -77.8508
rradius 35.7801
rwrist -4.03204
rhand -8.36249 -51.9618
rfingers 7.12502
rthumb 17.56 -81.1888
lclavicle -1.08338e-014 9.93923e-015
lhumerus -29.6326 2.66908 81.1604
lradius 28.3548
lwrist -2.15401
lhand -21.8818 -10.9056
lfingers 7.12502
lthumb 4.52291 19.0261
rfemur -24.7677 5.70449 19.8537
rtibia 8.3464
rfoot -17.8978 -4.20547
rtoes -25.6917
lfemur -24.073 -5.77806 -23.2732
ltibia 7.87781
lfoot -6.03459 -6.6199
ltoes -19.8679
82
root -1.48092 17.9838 20.7192 -153.933 -0.25117 178.715
lowerback -27.5768 -2.62057 -6.16351
upperback -0.85367 -2.04822 0.121573
thorax 13.9195 -1.54228 2.67739
lowerneck -1.53077 -4.01788 -0.591109
upperneck 5.50229 -5.46641 4.53331
head 2.15114 -2.57191 1.40797
rclavicle 2.18663e-014 1.23246e-014
rhumerus -40.9606 -16.0258 -77.9059
rradius 35.6779
rwrist -4.18548
rhand -7.86728 -53.1198
rfingers 7.12502
rthumb 18.0365 -82.3034
lclavicle 2.18663e-014 1.23246e-014
lhumerus -29.5317 2.79786 81.0858
lradius 28.0351
lwrist -2.04162
lhand -21.8258 -11.1795
lfingers 7.12502
lthumb 4.577 18.7511
rfemur -24.7847 5.8379 19.8927
rtibia 8.37867
rfoot -17.8425 -4.28439
rtoes -25.4798
lfemur -24.1176 -5.75702 -23.1729
ltibia 7.97859
lfoot -6.12617 -6.49196
ltoes -21.1605
83
root -1.48157 17.9824 20.7169 -153.921 -0.261776 178.7
lowerback -27.3217 -2.59499 -6.16874
upperback -1.39017 -2.05653 0.0265969
thorax 13.9226 -1.56066 2.7402
lowerneck -1.14828 -4.07121 -0.590756
upperneck 5.20112 -5.52589 4.60847
head 1.98889 -2.60992 1.43868
rclavicle -4.96962e-016 -8.74653e-015
rhumerus -41.2647 -15.4217 -78.3063
rradius 35.8377
rwrist -6.1357
rhand -9.30518 -54.7718
rfingers 7.12502
rthumb 16.6527 -84.0775
lclavicle -4.96962e-016 -8.74653e-015
lhumerus -29.8711 2.88676 80.9754
lradius 27.7473
lwrist -2.09605
lhand -21.9004 -11.4538
lfingers 7.12502
lthumb 4.50491 18.4783
rfemur -24.7864 5.85902 19.8764
rtibia 8.39739
rfoot -17.8574 -4.30033
rtoes -25.2299
lfemur -24.1101 -5.74502 -23.2112
ltibia 7.96798
lfoot -6.18262 -6.48644
ltoes -21.3025
84
root -1.48299 17.9805 20.7145 -153.931 -0.267288 178.694
lowerback -27.6386 -2.62237 -6.15364
upperback -0.828939 -2.04419 0.0979678
thorax 13.9754 -1.54021 2.6457
lowerneck -1.3898 -4.0808 -0.598657
upperneck 5.24493 -5.54697 4.62363
head 2.04773 -2.61775 1.43973
rclavicle -8.44835e-015 -1.98785e-015
rhumerus -40.9438 -15.6434 -78.2743
rradius 35.6647
rwrist -5.73331
rhand -8.16438 -56.357
rfingers 7.12502
rthumb 17.7507 -85.5669
lclavicle -8.44835e-015 -1.98785e-015
lhumerus -29.6119 3.141 80.878
lradius 27.4945
lwrist -2.12853
lhand -21.8961 -11.4232
lfingers 7.12502
lthumb 4.50907 18.5088
rfemur -24.7576 5.94948 19.8558
rtibia 8.42483
rfoot -17.9566 -4.40218
rtoes -25.5159
lfemur -24.0752 -5.72366 -23.2423
ltibia 7.94928
lfoot -6.24008 -6.52676
ltoes -21.0148
85
root -1.48429 17.9796 20.713 -153.949 -0.263499 178.695
lowerback -27.5789 -2.64682 -6.20329
upperback -0.868299 -2.07581 0.147295
thorax 13.9083 -1.55821 2.71633
lowerneck -1.65441 -4.07771 -0.777743
upperneck 5.72884 -5.5526 4.67181
head 2.26249 -2.60755 1.47955
rclavicle -5.96354e-015 3.97569e-015
rhumerus -41.0172 -15.7284 -78.067
rradius 35.4674
rwrist -5.22611
rhand -7.77137 -56.4321
rfingers 7.12502
rthumb 18.1288 -85.6072
lclavicle -5.96354e-015 3.97569e-015
lhumerus -29.751 3.55998 80.756
lradius 27.2505
lwrist -2.19687
lhand -21.6737 -11.683
lfingers 7.12502
lthumb 4.72383 18.2443
rfemur -24.6863 6.08888 19.8202
rtibia 8.32679
rfoot -17.9805 -4.54245
rtoes -25.5345
lfemur -24.0391 -5.68401 -23.2618
ltibia 7.93307
lfoot -6.19661 -6.57637
ltoes -20.9701
86
root -1.48303 17.9822 20.716 -153.99 -0.257453 178.67
lowerback -27.3974 -2.65108 -6.25303
upperback -1.26823 -2.08218 0.0597246
thorax 14.1172 -1.57896 2.81388
lowerneck -1.34546 -4.04953 -0.689984
upperneck 5.27923 -5.50325 4.6494
head 2.05388 -2.59669 1.46557
rclavicle -2.01766e-014 -1.35174e-014
rhumerus -41.1344 -15.8251 -77.9448
rradius 35.4615
rwrist -4.56393
rhand -6.90869 -56.5812
rfingers 7.12502
rthumb 18.9586 -85.6772
lclavicle -2.01766e-014 -1.35174e-014
lhumerus -29.8799 3.68714 80.6848
lradius 26.9496
lwrist -1.87361
lhand -21.6749 -12.0079
lfingers 7.12502
lthumb 4.72264 17.9195
rfemur -24.6354 6.26352 19.7456
rtibia 8.25224
rfoot -17.9233 -4.69815
rtoes -25.0096
lfemur -24.0177 -5.6583 -23.2754
ltibia 7.92963
lfoot -6.10948 -6.61682
ltoes -20.8063
87
root -1.48085 17.9844 20.7208 -154.032 -0.23957 178.606
lowerback -27.268 -2.6561 -6.34995
upperback -1.2661 -2.06218 0.0382588
thorax 14.0498 -1.57298 2.85598
lowerneck -1.39744 -3.99418 -0.706831
upperneck 5.30599 -5.42953 4.61311
head 2.06887 -2.56058 1.45765
rclavicle -1.63003e-014 -8.74653e-015
rhumerus -41.1542 -15.7196 -78.0321
rradius 35.5099
rwrist -4.88968
rhand -7.23316 -57.1842
rfingers 7.12502
rthumb 18.6466 -86.3105
lclavicle -1.63003e-014 -8.74653e-015
lhumerus -29.9642 3.47653 80.7446
lradius 26.7892
lwrist -1.15943
lhand -21.2709 -11.9588
lfingers 7.12502
lthumb 5.11282 17.9595
rfemur -24.6281 6.34924 19.6551
rtibia 8.29752
rfoot -17.9025 -4.75368
rtoes -24.5437
lfemur -24.0067 -5.68354 -23.3168
ltibia 7.94054
lfoot -6.0953 -6.63905
ltoes -20.427
88
root -1.4799 17.9837 20.7234 -154.06 -0.167779 178.48
lowerback -27.2436 -2.67689 -6.52034
upperback -1.22723 -2.02881 0.0121286
thorax 14.0844 -1.568 2.93682
lowerneck -1.82765 -3.8298 -0.867856
upperneck 5.86495 -5.21823 4.50182
head 2.325 -2.445 1.44639
rclavicle -4.47266e-015 -1.66979e-014
rhumerus -41.0672 -15.76 -78.0276
rradius 35.3479
rwrist -5.13202
rhand -7.59508 -57.2685
rfingers 7.12502
rthumb 18.2984 -86.4278
lclavicle -4.47266e-015 -1.66979e-014
lhumerus -30.0316 3.39431 80.7531
lradius 26.7258
lwrist -1.00857
lhand -20.7316 -11.68
lfingers 7.12502
lthumb 5.6335 18.2252
rfemur -24.6385 6.31123 19.4951
rtibia 8.33967
rfoot -17.9459 -4.73575
rtoes -24.5195
lfemur -23.9971 -5.81639 -23.4312
ltibia 7.95683
lfoot -6.08705 -6.5591
ltoes -19.4149
89
root -1.48056 17.9814 20.7174 -153.935 -0.22977 178.591
lowerback -27.5225 -2.67441 -6.40016
upperback -0.857003 -2.04904 0.126618
thorax 13.8954 -1.55742 2.81257
lowerneck -1.87309 -3.87328 0.0246708
upperneck 5.82904 -5.2704 3.66749
head 2.26241 -2.47694 1.02296
rclavicle -6.55989e-015 8.74653e-015
rhumerus -41.0283 -15.9699 -77.8961
rradius 35.1923
rwrist -4.68194
rhand -6.78379 -57.0445
rfingers 7.12502
rthumb 19.0788 -86.1287
lclavicle -6.55989e-015 8.74653e-015
lhumerus -30.1185 3.45649 80.7083
lradius 26.4996
lwrist -1.0257
lhand -21.5143 -12.4862
lfingers 7.12502
lthumb 4.87777 17.4376
rfemur -24.7202 6.16265 19.6737
rtibia 8.27731
rfoot -17.9715 -4.61623
rtoes -24.8517
lfemur -24.1105 -5.87552 -23.2819
ltibia 7.96739
lfoot -6.06995 -6.52879
ltoes -18.4337
90
root -1.48315 17.9778 20.7095 -153.919 -0.246442 178.564
lowerback -27.7034 -2.6842 -6.3973
upperback -0.795197 -2.04181 0.105336
thorax 14.0502 -1.55664 2.78415
lowerneck -2.35738 -3.51731 -0.218935
upperneck 6.51947 -4.79556 3.51826
head 2.57223 -2.23152 1.01971
rclavicle 1.54058e-014 1.27222e-014
rhumerus -41.0135 -16.0248 -77.8833
rradius 35.1906
rwrist -4.53893
rhand -6.32304 -57.0677
rfingers 7.12502
rthumb 19.5218 -86.1077
lclavicle 1.54058e-014 1.27222e-014
lhumerus -30.09 3.67425 80.6181
lradius 26.1262
lwrist -0.961892
lhand -22.2585 -13.1381
lfingers 7.12502
lthumb 4.15913 16.8011
rfemur -24.6618 6.09437 19.653
rtibia 8.19548
rfoot -17.9688 -4.56701
rtoes -25.113
lfemur -24.0506 -5.95425 -23.3474
ltibia 7.92633
lfoot -6.18609 -6.44604
ltoes -19.0184
